<?xml version="1.0" encoding="UTF-8"?>
<svg id="publicdomainvectors.org" xmlns="http://www.w3.org/2000/svg" viewBox="0 0 289.35 451.13">
  <defs>
    <style>
      .cls-1 {
        fill: #489fb7;
      }

      .cls-1, .cls-2, .cls-3, .cls-4, .cls-5, .cls-6, .cls-7, .cls-8, .cls-9, .cls-10, .cls-11, .cls-12, .cls-13 {
        stroke-width: 0px;
      }

      .cls-1, .cls-2, .cls-3, .cls-4, .cls-6, .cls-7, .cls-8, .cls-9, .cls-10, .cls-12, .cls-13 {
        fill-rule: evenodd;
      }

      .cls-2 {
        fill: #4d3014;
      }

      .cls-3 {
        fill: #58d1ed;
      }

      .cls-4 {
        fill: #12414c;
      }

      .cls-5 {
        fill: #32717f;
      }

      .cls-6 {
        fill: #266270;
      }

      .cls-7 {
        fill: #38210c;
      }

      .cls-8 {
        fill: #aedde5;
      }

      .cls-9 {
        fill: #cff8ff;
      }

      .cls-10 {
        fill: #367d8e;
      }

      .cls-11 {
        fill: #66411e;
      }

      .cls-12 {
        fill: #333;
      }

      .cls-13 {
        fill: #296b7a;
      }
    </style>
  </defs>
  <g>
    <g>
      <g>
        <path class="cls-1" d="M247.28,144.13c-32.32,0-67.33,36.99-78.2,82.63-10.87,45.63,6.52,82.63,38.84,82.63s67.33-36.99,78.2-82.63-6.52-82.63-38.83-82.63Z"/>
        <path class="cls-1" d="M63.89,144.13c32.32,0,67.33,36.99,78.2,82.63,10.87,45.63-6.51,82.63-38.83,82.63s-67.33-36.99-78.2-82.63c-10.87-45.63,6.52-82.63,38.83-82.63Z"/>
      </g>
      <g>
        <path class="cls-4" d="M119.66,336.93c27.77,0,50.42-25.72,50.42-57.26s-22.65-57.26-50.42-57.26-50.43,25.72-50.43,57.26,22.65,57.26,50.43,57.26Z"/>
        <path class="cls-4" d="M191.52,336.93c27.77,0,50.42-25.72,50.42-57.26s-22.65-57.26-50.42-57.26-50.43,25.72-50.43,57.26,22.65,57.26,50.43,57.26Z"/>
      </g>
      <path class="cls-10" d="M155.59,318.5c54.22,0,98.44-44.22,98.44-98.44s-44.22-98.44-98.44-98.44-98.44,44.22-98.44,98.44,44.22,98.44,98.44,98.44Z"/>
      <path class="cls-13" d="M254.03,220.06c0,54.37-44.07,98.44-98.44,98.44s-98.44-44.07-98.44-98.44c0,41.79,44.07,75.67,98.44,75.67s98.44-33.88,98.44-75.67Z"/>
      <path class="cls-6" d="M155.59,121.61c32.44,0,61.21,15.69,79.14,39.9.38,2.28.58,4.61.58,6.98,0,28.48-28.56,51.56-63.78,51.56s-63.78-23.09-63.78-51.56c0-20.13,14.27-37.56,35.07-46.06,4.18-.54,8.44-.82,12.77-.82Z"/>
      <path class="cls-3" d="M155.59,212.06c35.13,0,63.78-23.16,63.78-51.56s-28.65-51.57-63.78-51.57-63.78,23.16-63.78,51.57,28.65,51.56,63.78,51.56Z"/>
      <path class="cls-9" d="M175.26,40.98c0,.08,0,.16,0,.23v99.61c0,10.82-8.85,19.67-19.67,19.67h0c-10.82,0-19.67-8.85-19.67-19.67v-59.36c-.46.02-.93.03-1.39.03-22.5,0-40.74-18.24-40.74-40.74S112.02,0,134.52,0s40.74,18.24,40.74,40.74c0,.08,0,.16,0,.24Z"/>
      <path class="cls-8" d="M158.31,160.3c-.89.12-1.8.19-2.72.19h0c-10.82,0-19.67-8.85-19.67-19.67v-59.36c-.46.02-.93.03-1.39.03-14.71,0-27.61-7.8-34.77-19.49l6-5.35c7.14,6.96,27.09,9.65,40.22,4.66v76c0,9.25,4.63,17.88,12.33,23Z"/>
      <path class="cls-2" d="M99.31,20.23h-63.97c-16,0-30,10.74-34.14,26.19-4.14,15.45,2.61,31.75,16.47,39.75l3.3-7.11c2.83-6.1,8.96-9.97,15.68-9.9h68.51l.37-5.79c.95-14.66-1.17-29.36-6.23-43.16Z"/>
      <path class="cls-7" d="M17.67,86.18l3.3-7.11c2.83-6.1,8.96-9.97,15.68-9.89h68.51l.37-5.79c.14-2.25.22-4.5.22-6.75H36.68c-6.17.07-11.99,2.89-15.85,7.7-3.87,4.81-5.38,11.1-4.13,17.14l.97,4.7Z"/>
      <rect class="cls-11" x="92.38" y="15.52" width="16.94" height="13.98" rx="3.7" ry="3.7" transform="translate(5.75 62.91) rotate(-35.6)"/>
      <path class="cls-12" d="M145.8,39.77c0,5.72-4.67,10.38-10.4,10.38s-10.4-4.67-10.4-10.38c0-.17,0-.34.03-.51,2.52,2.7,5.89,4.35,9.6,4.35,4.39,0,8.33-2.32,10.94-5.98.16.69.23,1.41.23,2.14Z"/>
    </g>
    <path class="cls-7" d="M134.82,417.75l-26.92,7.63c-2.65.75-4.67,2.59-5.6,5.1-.94,2.51-.71,5.51.61,8.31h30.96c1.73,6.95,8.3,12.33,15.37,12.33s11.43-5.38,10.31-12.33h30.96c.17-2.81-.83-5.8-2.8-8.31-1.97-2.52-4.74-4.35-7.7-5.1l-30.06-7.63-18.81-91.5c-1.04-5.04-16.15-5.04-15.12,0l18.81,91.5Z"/>
    <path class="cls-7" d="M178.34,417.75l-29.34,7.63c-2.89.75-5.49,2.59-7.22,5.1-1.73,2.51-2.46,5.51-2.02,8.31h30.96c-.47,6.95,4.39,12.33,11.47,12.33s13.13-5.38,14.21-12.33h30.96c1.07-2.81,1-5.8-.17-8.31-1.17-2.52-3.36-4.35-6.08-5.1l-27.64-7.63,10.2-91.5c.56-5.04-14.56-5.04-15.12,0l-10.2,91.5Z"/>
  </g>
  <circle class="cls-5" cx="91.61" cy="232.08" r="21.06"/>
  <circle class="cls-5" cx="112.67" cy="269.28" r="10.53"/>
  <circle class="cls-5" cx="137.31" cy="274.18" r="5.49"/>
  <circle class="cls-5" cx="150.59" cy="285.44" r="2.68"/>
</svg>